Patient4_TMGait_0pt5_02_left_17_GRF.mot
version=1
nRows=39
nColumns=19
inDegrees=no
endheader
time	F1x	F1y	F1z	M1x	M1y	M1z	F2x	F2y	F2z	M2x	M2y	M2z	EC1x	EC1y	EC1z	EC2x	EC2y	EC2z
21.53	4.15	3.7811	-5.4816	-2.0256	8.1747	23.5606	-16.2066	770.6407	-65.1907	276.5603	62.5033	656.9683	-0.0592	0.0182	-0.0073	-0.0462	0.0165	0.9585
21.5423	2.8931	3.2384	-3.643	-1.6348	5.5063	16.532	-14.4942	764.5771	-66.4481	274.8956	62.1185	650.6367	-0.0592	0.0182	-0.0073	-0.0462	0.0165	0.9585
21.5546	1.8213	2.8442	-2.0802	-1.329	3.2358	10.6634	-12.3024	758.5012	-67.3241	273.084	61.2104	643.616	-0.0592	0.0182	-0.0073	-0.0462	0.0165	0.9585
21.5669	1.0168	2.604	-0.87379	-1.1183	1.4897	6.2522	-9.7343	753.0318	-67.7179	271.335	59.7864	636.4695	-0.0592	0.0182	-0.0073	-0.0462	0.0165	0.9585
21.5791	0.44463	2.5005	-0.037878	-0.99666	0.27262	3.266	-6.9206	748.6833	-67.6341	269.8617	57.9274	629.7252	-0.0592	0.0182	-0.0073	-0.0462	0.0165	0.9585
21.5914	0.084939	2.4865	0.49612	-0.94287	-0.50303	1.4599	-3.9896	745.8091	-67.1356	268.8328	55.7415	623.7971	-0.0592	0.0182	-0.0073	-0.0462	0.0165	0.9585
21.6037	-0.12415	2.5206	0.79922	-0.9327	-0.94201	0.54308	-1.0412	744.5536	-66.3269	268.3399	53.3519	618.9078	-0.0592	0.0182	-0.0073	-0.0462	0.0165	0.9585
21.616	-0.24216	2.5319	0.94681	-0.93269	-1.1554	0.18652	1.8459	744.8391	-65.3142	268.3876	50.8724	615.0854	-0.0592	0.0182	-0.0073	-0.0462	0.0165	0.9585
21.6283	-0.31649	2.4506	0.99717	-0.90994	-1.2311	0.10338	4.6204	746.4279	-64.2024	268.9119	48.4029	612.2196	-0.0592	0.0182	-0.0073	-0.0462	0.0165	0.9585
21.6406	-0.38879	2.2067	0.99123	-0.83033	-1.2373	0.063661	7.2586	748.9595	-63.079	269.7941	46.0191	610.0853	-0.0592	0.0182	-0.0073	-0.0462	0.0165	0.9585
21.6529	-0.48973	1.6943	0.9574	-0.65003	-1.2189	-0.16406	9.7419	752.0013	-62.0165	270.882	43.7802	608.386	-0.0592	0.0182	-0.0073	-0.0462	0.0165	0.9585
21.6651	-0.64383	0.8395	0.89666	-0.3346	-1.1907	-0.71431	12.0806	755.0906	-61.0746	272.0061	41.7258	606.7842	-0.0592	0.0182	-0.0073	-0.0462	0.0165	0.9585
21.6774	-0.82784	-0.45308	0.8136	0.15151	-1.1577	-1.7256	14.2817	757.7592	-60.2875	272.9935	39.875	604.9419	-0.0592	0.0182	-0.0073	-0.0462	0.0165	0.9585
21.6897	-1.0349	-2.2003	0.67459	0.81446	-1.0865	-3.2209	16.3671	759.5771	-59.6725	273.684	38.2334	602.5416	-0.0592	0.0182	-0.0073	-0.0462	0.0165	0.9585
21.702	-1.1923	-4.3455	0.47375	1.6296	-0.94236	-5.159	18.3562	760.1868	-59.225	273.9436	36.7913	599.3187	-0.0592	0.0182	-0.0073	-0.0462	0.0165	0.9585
21.7143	-1.213	-6.664	0.16355	2.5092	-0.64398	-7.3045	20.2689	759.2698	-58.9299	273.6556	35.53	595.0242	-0.0592	0.0182	-0.0073	-0.0462	0.0165	0.9585
21.7266	-0.94369	-8.7053	-0.25413	3.2756	-0.1324	-9.2434	22.1036	756.543	-58.7738	272.7173	34.441	589.4431	-0.0592	0.0182	-0.0073	-0.0462	0.0165	0.9585
21.7389	-0.20903	-9.6882	-0.80375	3.6233	0.68345	-10.2217	23.8544	751.778	-58.7277	271.0471	33.503	582.406	-0.0592	0.0182	-0.0073	-0.0462	0.0165	0.9585
21.7511	1.2238	-8.4567	-1.4397	3.1016	1.8471	-9.1439	25.5044	744.8302	-58.7628	268.5952	32.7018	573.8198	-0.0592	0.0182	-0.0073	-0.0462	0.0165	0.9585
21.7634	3.569	-3.415	-2.0981	1.0925	3.3782	-4.4821	27.0276	735.665	-58.8394	265.3493	32.0162	563.6877	-0.0592	0.0182	-0.0073	-0.0462	0.0165	0.9585
21.7757	6.952	7.4303	-2.6042	-3.176	5.1589	5.6607	28.4019	724.3034	-58.9112	261.3185	31.4196	552.0373	-0.0592	0.0182	-0.0073	-0.0462	0.0165	0.9585
21.788	11.2447	26.4054	-2.7468	-10.5955	6.9338	23.5081	29.6065	710.7713	-58.8933	256.5121	30.8547	538.9139	-0.0592	0.0182	-0.0073	-0.0462	0.0165	0.9585
21.8003	15.8601	55.761	-2.2209	-22.0235	8.179	51.2241	30.6424	694.932	-58.6595	250.8828	30.2283	524.2395	-0.0592	0.0182	-0.0073	-0.0462	0.0165	0.9585
21.8126	19.552	97.0817	-0.71129	-38.0519	8.1055	90.3662	31.4968	676.3913	-58.0312	244.2884	29.4156	507.7672	-0.0592	0.0182	-0.0073	-0.0462	0.0165	0.9585
21.8249	20.3836	150.5661	2.1041	-58.7258	5.6649	141.2176	32.1564	654.4518	-56.8071	236.4798	28.2805	489.0251	-0.0592	0.0182	-0.0073	-0.0462	0.0165	0.9585
21.8371	16.8497	214.5844	6.5005	-83.3769	0.031326	202.326	32.5497	628.2373	-54.8123	227.1417	26.7237	467.4391	-0.0592	0.0182	-0.0073	-0.0462	0.0165	0.9585
21.8494	9.0573	285.4525	12.5173	-110.543	-8.7671	270.1787	32.6189	596.8465	-51.9495	215.949	24.7038	442.3918	-0.0592	0.0182	-0.0073	-0.0462	0.0165	0.9585
21.8617	-1.6213	357.17	19.9543	-137.9162	-19.9825	338.8369	32.2563	559.5787	-48.2614	202.6439	22.2942	413.4103	-0.0592	0.0182	-0.0073	-0.0462	0.0165	0.9585
21.874	-13.2089	423.9047	28.1782	-163.2879	-32.2153	402.4138	31.3751	516.1451	-43.9238	187.1141	19.6539	380.2771	-0.0592	0.0182	-0.0073	-0.0462	0.0165	0.9585
21.8863	-24.1128	482.6145	36.2683	-185.5289	-43.944	457.7424	29.8629	466.9067	-39.2083	169.4709	17.0066	343.2512	-0.0592	0.0182	-0.0073	-0.0462	0.0165	0.9585
21.8986	-33.2836	532.9174	43.4033	-204.5227	-53.9845	504.3724	27.6602	412.8215	-34.4554	150.0362	14.6003	302.9976	-0.0592	0.0182	-0.0073	-0.0462	0.0165	0.9585
21.9109	-40.1252	575.5004	49.094	-220.5494	-61.6656	542.9818	24.7602	355.363	-29.9376	129.321	12.6112	260.5482	-0.0592	0.0182	-0.0073	-0.0462	0.0165	0.9585
21.9231	-44.3738	611.1658	53.2059	-233.9004	-66.794	574.3908	21.2271	296.4135	-25.7781	107.9976	11.0874	217.2221	-0.0592	0.0182	-0.0073	-0.0462	0.0165	0.9585
21.9354	-46.1048	640.5778	56.0393	-244.7818	-69.7206	599.3695	17.1937	238.2073	-21.9728	86.8821	9.9626	174.6013	-0.0592	0.0182	-0.0073	-0.0462	0.0165	0.9585
21.9477	-45.7025	664.5835	58.0324	-253.4552	-71.0317	618.8769	12.9079	183.218	-18.4812	66.884	9.108	134.4364	-0.0592	0.0182	-0.0073	-0.0462	0.0165	0.9585
21.96	-43.8078	684.2909	59.6579	-260.2802	-71.4303	634.1896	8.7445	133.7854	-15.2646	48.8708	8.3533	98.3647	-0.0592	0.0182	-0.0073	-0.0462	0.0165	0.9585
21.9723	-41.0964	700.776	61.2329	-265.6357	-71.4798	646.5174	5.0885	91.7211	-12.3023	33.5168	7.5444	67.6673	-0.0592	0.0182	-0.0073	-0.0462	0.0165	0.9585
21.9846	-38.2657	714.8751	62.9675	-269.8328	-71.637	656.8164	2.2548	57.9574	-9.5689	21.1793	6.5598	42.9854	-0.0592	0.0182	-0.0073	-0.0462	0.0165	0.9585
21.9969	-35.7967	727.0546	64.9005	-273.0864	-72.1199	665.5746	0.31474	32.528	-7.0632	11.8838	5.3851	24.3529	-0.0592	0.0182	-0.0073	-0.0462	0.0165	0.9585
